<?xml version="1.0" encoding="utf-8"?>
<!-- Generator: Adobe Illustrator 26.0.1, SVG Export Plug-In . SVG Version: 6.00 Build 0)  -->
<svg version="1.1" id="Layer_1" xmlns="http://www.w3.org/2000/svg" xmlns:xlink="http://www.w3.org/1999/xlink" x="0px" y="0px"
	 viewBox="0 0 551 442.7" style="enable-background:new 0 0 551 442.7;" xml:space="preserve">
<style type="text/css">
	.st0{fill:#4E5FAB;stroke:#231F20;stroke-miterlimit:10;}
</style>
<path class="st0" d="M550.5,50.5c0,27.6-22.4,50-50,50h-450c-27.6,0-50-22.4-50-50s22.4-50,50-50h450
	C528.1,0.5,550.5,22.9,550.5,50.5z"/>
<path class="st0" d="M550.5,221.3c0,27.6-22.4,50-50,50l0,0h-450c-27.6,0-50-22.4-50-50s22.4-50,50-50h450
	C528.1,171.3,550.5,193.7,550.5,221.3L550.5,221.3z"/>
<path class="st0" d="M550.5,392.2c0,27.6-22.4,50-50,50h-450c-27.6,0-50-22.4-50-50s22.4-50,50-50h450
	C528.1,342.2,550.5,364.6,550.5,392.2z"/>
</svg>
